#!OML:ASF F:\VICON\USERDATA\INSTALL\rory3\rory3.ASF
:FULLY-SPECIFIED
:DEGREES
1028
root -0.861956 21.1877 2.88313 -363.609 -55.2941 365.095
lowerback 7.70011 -0.390843 -4.78854
upperback -6.57795 -1.06468 1.3645
thorax -11.3378 -0.0790302 4.36511
lowerneck -16.2568 -7.15568 -15.7458
upperneck -4.0733 -7.06618 12.4871
head 2.38405 -3.04347 5.88967
rclavicle 1.17283e-014 -1.59028e-014
rhumerus 86.3051 -31.9856 -31.1692
rradius 28.4465
rwrist 2.20992
rhand -33.0822 -9.62072
rfingers 7.12502
rthumb -6.2936 -39.5072
lclavicle 1.17283e-014 -1.59028e-014
lhumerus 98.4172 31.0989 44.9058
lradius 22.9761
lwrist -2.79356
lhand -3.69471 28.7381
lfingers 7.12502
lthumb 22.0471 57.5014
rfemur -16.4606 -0.924389 14.1111
rtibia 39.0512
rfoot -5.89945 -28.9262
rtoes 36.1073
lfemur -5.94184 -4.55346 -17.7256
ltibia 30.8987
lfoot 10.906 10.6905
ltoes -11.2683
1029
root -0.882796 21.2768 2.87018 -363.182 -55.6556 364.828
lowerback 7.66973 -0.352344 -4.63985
upperback -6.64371 -0.998668 1.32953
thorax -11.4024 -0.0585896 4.23235
lowerneck -16.4179 -7.17565 -16.1689
upperneck -3.69462 -7.02467 12.9472
head 2.55571 -3.00065 6.10203
rclavicle 5.02925e-014 3.57812e-015
rhumerus 86.5361 -32.2712 -31.2559
rradius 28.5113
rwrist 2.22214
rhand -32.973 -9.40805
rfingers 7.12502
rthumb -6.18815 -39.2977
lclavicle 5.02925e-014 3.57812e-015
lhumerus 97.8676 31.3673 43.6809
lradius 23.3591
lwrist -1.54513
lhand -4.32147 28.9259
lfingers 7.12502
lthumb 21.4452 57.759
rfemur -16.8939 -1.00305 14.4565
rtibia 39.0782
rfoot -4.87062 -27.9964
rtoes 34.0444
lfemur -6.22206 -4.71814 -17.4658
ltibia 31.0468
lfoot 11.0749 9.64882
ltoes -11.9697
1030
root -0.907017 21.3515 2.86316 -362.699 -56.1041 364.496
lowerback 7.47682 -0.289897 -4.32979
upperback -6.66948 -0.873185 1.27468
thorax -11.3284 -0.0291093 3.97179
lowerneck -16.383 -7.18556 -16.4033
upperneck -3.67711 -7.00471 13.0514
head 2.56583 -2.98667 6.17593
rclavicle 1.15693e-013 3.18055e-014
rhumerus 86.8554 -32.4705 -31.4762
rradius 28.5399
rwrist 2.17316
rhand -32.7494 -8.69488
rfingers 7.12502
rthumb -5.97227 -38.5907
lclavicle 1.15693e-013 3.18055e-014
lhumerus 97.9211 31.2723 43.3233
lradius 23.4455
lwrist -1.12014
lhand -4.94157 28.861
lfingers 7.12502
lthumb 20.8496 57.7607
rfemur -17.2834 -0.909048 14.7944
rtibia 39.0647
rfoot -3.61621 -26.6185
rtoes 32.3713
lfemur -6.50946 -4.94023 -17.185
ltibia 31.2258
lfoot 11.1425 7.68595
ltoes -15.1842
1031
root -0.933403 21.4284 2.85761 -362.67 -56.6009 364.726
lowerback 7.27766 -0.198936 -4.39829
upperback -6.75062 -0.762449 1.19565
thorax -11.3119 0.0252068 3.90326
lowerneck -16.4707 -7.20045 -16.4561
upperneck -3.50343 -7.00696 12.9844
head 2.62887 -2.98717 6.15891
rclavicle 1.19271e-013 3.77691e-014
rhumerus 87.1434 -32.4194 -31.7378
rradius 28.654
rwrist 2.10434
rhand -32.6733 -8.38768
rfingers 7.12502
rthumb -5.89877 -38.2856
lclavicle 1.19271e-013 3.77691e-014
lhumerus 97.817 31.126 42.9613
lradius 23.4805
lwrist -0.898638
lhand -5.83613 28.5471
lfingers 7.12502
lthumb 19.9899 57.5389
rfemur -17.6667 -0.686367 14.779
rtibia 38.9898
rfoot -2.08492 -25.0542
rtoes 31.2003
lfemur -6.76477 -4.49633 -17.2138
ltibia 31.4252
lfoot 10.8488 5.25909
ltoes -17.7853
1032
root -0.959489 21.5014 2.8504 -362.497 -57.0388 364.841
lowerback 7.05546 -0.111683 -4.49049
upperback -6.91019 -0.65093 1.22603
thorax -11.3703 0.0903379 3.9688
lowerneck -16.515 -7.23123 -16.7456
upperneck -3.17234 -6.99932 12.9571
head 2.74075 -2.98081 6.19278
rclavicle -4.73108e-014 9.54166e-015
rhumerus 90.7482 -30.4268 -36.8589
rradius 27.2823
rwrist 7.0676
rhand -32.6014 -7.73809
rfingers 7.12502
rthumb -5.82937 -37.6379
lclavicle -4.73108e-014 9.54166e-015
lhumerus 97.4482 31.0032 42.418
lradius 23.438
lwrist -0.485844
lhand -6.84483 28.2597
lfingers 7.12502
lthumb 19.0201 57.3498
rfemur -18.0357 -0.0594816 14.8251
rtibia 38.8591
rfoot -1.31469 -23.6821
rtoes 30.8165
lfemur -7.03395 -4.22659 -17.1664
ltibia 31.6296
lfoot 10.3085 3.75657
ltoes -17.7597
1033
root -0.986057 21.5552 2.84174 -362.455 -57.3875 364.814
lowerback 7.07312 -0.0402131 -4.51532
upperback -7.02202 -0.565018 1.20985
thorax -11.5183 0.138164 3.95349
lowerneck -15.5507 -7.34487 -16.7994
upperneck -3.95895 -7.2381 12.4636
head 2.3666 -3.13759 6.04581
rclavicle -1.31297e-013 -1.07344e-014
rhumerus 90.7962 -30.0254 -36.7534
rradius 27.3362
rwrist 7.61222
rhand -32.216 -7.78892
rfingers 7.12502
rthumb -5.4573 -37.6986
lclavicle -1.31297e-013 -1.07344e-014
lhumerus 96.8798 30.8538 41.5102
lradius 23.5062
lwrist 0.27445
lhand -7.47029 28.3902
lfingers 7.12502
lthumb 18.4185 57.5382
rfemur -18.1176 0.508899 14.9625
rtibia 38.681
rfoot -0.517261 -22.4899
rtoes 28.9446
lfemur -7.05556 -4.33835 -17.0374
ltibia 31.8321
lfoot 9.86358 2.86946
ltoes -15.478
1034
root -1.013 21.5969 2.83414 -362.546 -57.7107 364.988
lowerback 6.98218 -0.018485 -4.54947
upperback -7.03102 -0.553682 1.04278
thorax -11.4749 0.136049 3.78721
lowerneck -15.6913 -7.29777 -16.7368
upperneck -3.842 -7.17437 12.5764
head 2.41872 -3.10063 6.07403
rclavicle 5.38706e-014 2.38542e-014
rhumerus 90.8225 -30.0809 -36.6196
rradius 27.3645
rwrist 7.41479
rhand -31.9715 -7.75206
rfingers 7.12502
rthumb -5.22118 -37.6677
lclavicle 5.38706e-014 2.38542e-014
lhumerus 96.1772 30.8977 40.1695
lradius 23.8655
lwrist 1.32533
lhand -8.16691 28.568
lfingers 7.12502
lthumb 17.7482 57.778
rfemur -18.2563 0.717422 14.9816
rtibia 38.5122
rfoot 0.692827 -21.2872
rtoes 26.4055
lfemur -7.1199 -4.86002 -17.0502
ltibia 31.9863
lfoot 9.46847 2.17845
ltoes -12.7887
1035
root -1.04259 21.6286 2.83557 -362.385 -58.05 365.035
lowerback 6.58681 -0.0188835 -4.39893
upperback -7.02313 -0.534582 0.88594
thorax -11.226 0.116264 3.52196
lowerneck -15.48 -7.4148 -16.695
upperneck -4.28976 -7.35067 12.4774
head 2.26989 -3.19599 6.02871
rclavicle -1.89839e-014 3.97569e-015
rhumerus 91.301 -29.9485 -37.1789
rradius 27.2297
rwrist 7.42563
rhand -32.0421 -7.61464
rfingers 7.12502
rthumb -5.28939 -37.5286
lclavicle -1.89839e-014 3.97569e-015
lhumerus 96.005 30.676 39.7458
lradius 24.0124
lwrist 1.30189
lhand -9.52601 28.3885
lfingers 7.12502
lthumb 16.44 57.7118
rfemur -18.5051 0.908825 14.9993
rtibia 38.3953
rfoot 1.33869 -20.3281
rtoes 25.8018
lfemur -7.2323 -5.28085 -17.0234
ltibia 32.081
lfoot 8.95275 1.16989
ltoes -12.2522
1036
root -1.07067 21.6436 2.832 -362.48 -58.4065 365.168
lowerback 6.3184 0.0385349 -4.2924
upperback -6.92065 -0.449491 0.674045
thorax -10.9543 0.129074 3.21364
lowerneck -15.74 -7.38985 -16.273
upperneck -4.22197 -7.34887 12.2431
head 2.30164 -3.20018 5.88013
rclavicle -1.78906e-014 7.15625e-015
rhumerus 91.6472 -30.0294 -37.6842
rradius 27.1579
rwrist 7.92148
rhand -31.5311 -7.14692
rfingers 7.12502
rthumb -4.79602 -37.0726
lclavicle -1.78906e-014 7.15625e-015
lhumerus 96.2733 30.3064 39.8743
lradius 24.0495
lwrist 0.887341
lhand -10.904 28.2957
lfingers 7.12502
lthumb 15.113 57.7239
rfemur -18.5597 1.35051 14.9735
rtibia 38.3376
rfoot 1.5571 -19.7865
rtoes 26.4545
lfemur -7.11745 -5.1395 -17.0076
ltibia 32.1241
lfoot 8.57358 -0.438724
ltoes -13.1754
